<?xml version="1.0" encoding="UTF-8" standalone="no"?>
<svg
   xmlns:dc="http://purl.org/dc/elements/1.1/"
   xmlns:cc="http://creativecommons.org/ns#"
   xmlns:rdf="http://www.w3.org/1999/02/22-rdf-syntax-ns#"
   xmlns:svg="http://www.w3.org/2000/svg"
   xmlns="http://www.w3.org/2000/svg"
   xmlns:sodipodi="http://sodipodi.sourceforge.net/DTD/sodipodi-0.dtd"
   xmlns:inkscape="http://www.inkscape.org/namespaces/inkscape"
   width="1000"
   height="320"
   viewBox="0 0 1000 320"
   id="svg2"
   version="1.1"
   inkscape:version="0.91 r13725"
   sodipodi:docname="logo.svg"
   style="fill:none">
  <metadata
     id="metadata36">
    <rdf:RDF>
      <cc:Work
         rdf:about="">
        <dc:format>image/svg+xml</dc:format>
        <dc:type
           rdf:resource="http://purl.org/dc/dcmitype/StillImage" />
        <dc:title></dc:title>
      </cc:Work>
    </rdf:RDF>
  </metadata>
  <defs
     id="defs34" />
  <sodipodi:namedview
     pagecolor="#ffffff"
     bordercolor="#666666"
     borderopacity="1"
     objecttolerance="10"
     gridtolerance="10"
     guidetolerance="10"
     inkscape:pageopacity="0"
     inkscape:pageshadow="2"
     inkscape:window-width="1920"
     inkscape:window-height="1017"
     id="namedview32"
     showgrid="true"
     inkscape:zoom="0.62791082"
     inkscape:cx="780.14928"
     inkscape:cy="611.6277"
     inkscape:window-x="-8"
     inkscape:window-y="32"
     inkscape:window-maximized="1"
     inkscape:current-layer="svg2">
    <inkscape:grid
       type="xygrid"
       id="grid4242" />
  </sodipodi:namedview>
  <rect
     x="12.207501"
     y="109.22495"
     width="62.105988"
     height="201.22339"
     id="rect6"
     style="fill:#389621" />
  <rect
     x="145.1143"
     y="109.22495"
     width="62.105988"
     height="201.22339"
     id="rect8"
     style="fill:#389621" />
  <rect
     x="-253.31082"
     y="74.313484"
     width="62.105988"
     height="70.800819"
     transform="matrix(0,-1,1,0,0,0)"
     id="rect10"
     style="fill:#389621;stroke:none" />
  <rect
     x="259.38931"
     y="109.22495"
     width="62.105988"
     height="201.22339"
     id="rect12"
     style="fill:#76cf03" />
  <rect
     x="259.38931"
     y="4.8869019"
     width="62.105988"
     height="62.105988"
     id="rect14"
     style="fill:#76cf03" />
  <rect
     x="389.22031"
     y="-342.65854"
     width="62.105988"
     height="175.6879"
     transform="matrix(0.62359311,0.78174908,-0.78174908,0.62359311,0,0)"
     id="rect16"
     style="fill:#1aac3a" />
  <rect
     x="373.66434"
     y="4.8869019"
     width="62.105988"
     height="305.56146"
     id="rect18"
     style="fill:#1aac3a" />
  <path
     d="m 424.54529,145.91469 c -13.16275,20.04905 -19.15721,43.96109 -17.00959,67.8483 2.14638,23.88721 12.30941,46.34721 28.83581,63.7282 16.5264,17.38098 38.44485,28.66191 62.19418,32.01066 23.74933,3.34752 47.93216,-1.43464 68.61966,-13.57016 l -31.23062,-53.23973 c -8.67372,5.08896 -18.81438,7.09499 -28.7737,5.69015 -9.95808,-1.40359 -19.14852,-6.13359 -26.07955,-13.42234 -6.92979,-7.28753 -11.19025,-16.70527 -12.09079,-26.72172 -0.90054,-10.0177 1.61351,-20.04409 7.13225,-28.45076 l -51.59765,-33.8726 z"
     id="path20"
     inkscape:connector-curvature="0"
     style="fill:#1aac3a" />
  <rect
     x="-478.75519"
     y="459.15286"
     width="52.169029"
     height="203.75359"
     transform="matrix(-0.37824474,-0.92570563,0.92570563,-0.37824474,0,0)"
     id="rect22"
     style="fill:#6a9d29" />
  <path
     d="m 794.56405,192.45692 c -2.82831,-24.42878 -14.03967,-47.1223 -31.72249,-64.21138 -17.68282,-17.08909 -40.74526,-27.51917 -65.256,-29.51153 -24.51075,-1.99236 -48.95443,4.57597 -69.1662,18.58584 -20.21053,14.00987 -34.93959,34.59304 -41.67435,58.24547 -6.73602,23.6512 -5.06289,48.90599 4.73496,71.46164 9.79659,22.55565 27.11174,41.01728 48.99541,52.23734 21.88242,11.22131 46.97821,14.50672 71.01198,9.29851 24.03501,-5.20945 45.51872,-18.58957 60.79307,-37.86353 l -50.02886,-39.64722 c -6.10129,7.69866 -14.68434,13.0435 -24.28469,15.12404 -9.60033,2.08056 -19.62548,0.76763 -28.36628,-3.71393 -8.7408,-4.48282 -15.65816,-11.85603 -19.57083,-20.86637 -3.91393,-9.01034 -4.58219,-19.09884 -1.89176,-28.5464 2.69044,-9.44756 8.57436,-17.67039 16.64689,-23.26615 8.07378,-5.59574 17.83808,-8.22034 27.62847,-7.42414 9.79163,0.7962 19.00319,4.96227 26.06712,11.78895 7.06394,6.82546 11.54178,15.89044 12.67211,25.64853 l 63.41145,-7.33967 z"
     id="path24"
     inkscape:connector-curvature="0"
     style="fill:#6a9d29" />
  <rect
     x="849.39618"
     y="157.6676"
     width="62.105988"
     height="152.78073"
     id="rect26"
     style="fill:#6bd600" />
  <path
     d="m 992.52569,102.57837 c -11.72567,-12.24729 -26.6659,-20.58689 -42.92892,-23.96545 -16.26438,-3.37981 -33.12241,-1.64457 -48.44265,4.98213 -15.32035,6.62796 -28.41478,17.853 -37.62759,32.25289 -9.21279,14.40113 -14.13034,31.33122 -14.13034,48.65134 l 62.10475,0 c 0,-4.49026 1.27445,-8.87991 3.66301,-12.61372 2.38856,-3.73382 5.78451,-6.64411 9.75687,-8.36319 3.971,-1.71785 8.34208,-2.16751 12.55908,-1.29181 4.21699,0.87569 8.0911,3.03822 11.13063,6.21433 l 43.91516,-45.86652 z"
     id="path28"
     inkscape:connector-curvature="0"
     style="fill:#6bd600" />
  <path
     d="m 827.42184,80.98163 c 11.29709,-0.21612 22.4389,1.81723 32.77706,5.98206 10.33816,4.16482 19.66524,10.37667 27.43967,18.2753 7.77314,7.8974 13.83845,17.32384 17.8418,27.73033 4.00335,10.40647 5.86531,21.58555 5.47653,32.88511 l -61.33217,0.23228 c 0.10931,-3.16119 -0.41238,-6.28885 -1.53153,-9.20162 -1.12039,-2.91153 -2.81837,-5.54855 -4.99332,-7.75952 -2.17495,-2.20974 -4.78464,-3.94746 -7.67754,-5.11257 -2.8929,-1.16635 -6.01062,-1.73524 -9.17181,-1.67438 l 1.17131,-61.35699 z"
     id="path30"
     inkscape:connector-curvature="0"
     style="fill:#6bd600" />
</svg>
